<?xml version="1.0" encoding="UTF-8" standalone="no"?>
<svg
   xmlns:dc="http://purl.org/dc/elements/1.1/"
   xmlns:cc="http://creativecommons.org/ns#"
   xmlns:rdf="http://www.w3.org/1999/02/22-rdf-syntax-ns#"
   xmlns:svg="http://www.w3.org/2000/svg"
   xmlns="http://www.w3.org/2000/svg"
   viewBox="0 0 578.66669 161.33333"
   height="161.33333"
   width="578.66669"
   xml:space="preserve"
   id="svg2"
   version="1.1"><metadata
     id="metadata8"><rdf:RDF><cc:Work
         rdf:about=""><dc:format>image/svg+xml</dc:format><dc:type
           rdf:resource="http://purl.org/dc/dcmitype/StillImage" /></cc:Work></rdf:RDF></metadata><defs
     id="defs6" /><g
     transform="matrix(1.3333333,0,0,-1.3333333,0,161.33333)"
     id="g10"><g
       transform="scale(0.1)"
       id="g12"><path
         id="path14"
         style="fill:#471f68;fill-opacity:1;fill-rule:nonzero;stroke:none"
         d="m 1973.77,1165.14 57.32,-57.39 L 1689.55,828.598 1339.17,1100.2 V 882.887 L 1692.95,597.605 1867.54,749.32 V 342.227 h 179.19 v 562.828 l 100.08,86.976 56.96,-56.961 54.91,269.54 -284.91,-39.47" /><path
         id="path16"
         style="fill:#eea010;fill-opacity:1;fill-rule:evenodd;stroke:none"
         d="M 1518.37,680.426 V 461.652 h -119.6 V 342.227 h 59.8 v 59.711 h -119.39 v 59.714 h 59.59 v 179.137 h -59.59 l -0.01,184.149 z M 1339.18,521.363 v 59.715 h 119.39 v -59.715 h -119.39" /><path
         id="path18"
         style="fill:#471f68;fill-opacity:1;fill-rule:nonzero;stroke:none"
         d="m 2601.53,344.242 h 145.3 L 2479.3,942.547 H 2342.55 L 2075.87,344.242 h 141.89 l 52.99,128.207 h 277.79 z m -286.33,233.34 94.87,229.063 94.88,-229.063 z m 540.15,-233.34 h 138.47 v 485.481 h 191.46 V 942.547 H 2663.89 V 829.723 h 191.46 z m 634.18,-10.258 c 104.27,0 190.6,37.61 247.01,106.844 l -88.89,82.051 c -40.17,-47.012 -90.6,-70.945 -150.43,-70.945 -111.97,0 -191.46,78.636 -191.46,191.461 0,112.824 79.49,191.457 191.46,191.457 59.83,0 110.26,-23.93 150.43,-70.086 l 88.89,82.054 c -56.41,68.375 -142.74,105.985 -246.16,105.985 -186.33,0 -324.79,-129.063 -324.79,-309.41 0,-180.348 138.46,-309.411 323.94,-309.411 z m 702.55,608.563 V 706.641 h -271.8 V 942.547 H 3781.82 V 344.242 h 138.46 v 245.305 h 271.8 V 344.242 h 138.47 v 598.305 h -138.47" /><path
         id="path20"
         style="fill:#eea010;fill-opacity:1;fill-rule:nonzero;stroke:none"
         d="M 463.391,829.418 V 940.531 H 11.2422 V 342.227 H 149.703 V 560.18 H 426.637 V 671.293 H 149.703 V 829.418 Z M 509.516,342.227 H 647.98 V 940.531 H 509.516 Z M 1153.95,940.531 V 577.273 L 856.508,940.531 H 741.977 V 342.227 H 878.73 v 363.257 l 298.3,-363.257 h 113.68 v 598.304 h -136.76" /><path
         id="path22"
         style="fill:#471f68;fill-opacity:1;fill-rule:nonzero;stroke:none"
         d="m 89.668,50.7891 c 46.406,0 81.098,33.3711 81.098,78.6719 0,45.301 -34.692,78.668 -81.098,78.668 -46.8477,0 -81.32034,-33.59 -81.32034,-78.668 0,-45.0782 34.47264,-78.6719 81.32034,-78.6719 z m 0,14.5859 c -37.3438,0 -65.1914,27.1797 -65.1914,64.086 0,36.902 27.8476,64.082 65.1914,64.082 37.125,0 64.746,-27.18 64.746,-64.082 0,-36.9063 -27.621,-64.086 -64.746,-64.086 z M 297.539,51.0117 c 19.668,0 36.242,7.9571 45.524,22.9844 l -11.715,7.9531 C 323.395,70.2344 311.02,64.9336 297.539,64.9336 c -25.41,0 -43.973,17.8984 -43.973,45.3004 0,27.18 18.563,45.301 43.973,45.301 13.481,0 25.856,-5.523 33.809,-17.238 l 11.715,7.957 c -9.282,15.246 -25.856,22.98 -45.524,22.98 -34.691,0 -59.883,-24.304 -59.883,-59 0,-34.6949 25.192,-59.2223 59.883,-59.2223 z m 78.602,94.5783 v 22.762 H 361.113 V 52.1172 h 15.692 V 111.34 c 0,27.402 14.804,42.871 39.113,42.871 1.105,0 2.43,-0.223 3.754,-0.223 v 15.246 c -21.434,0 -36.238,-8.175 -43.531,-23.644 z m 140.031,68.062 H 495.18 L 464.91,186.25 h 15.465 z m 19.445,-103.418 c 0,34.914 -23.64,59 -56.344,59 -32.707,0 -56.793,-24.527 -56.793,-59 0,-34.4723 24.75,-59.2223 60.989,-59.2223 18.34,0 34.472,6.6289 44.859,19.0039 l -8.84,10.1641 c -8.84,-10.1641 -21.433,-15.2461 -35.578,-15.2461 -25.41,0 -43.976,16.1289 -45.742,40.4374 h 97.23 c 0,1.77 0.219,3.539 0.219,4.863 z m -56.344,45.52 c 22.758,0 39.332,-15.906 41.321,-38.668 h -82.426 c 1.988,22.762 18.562,38.668 41.105,38.668 z m 166.106,60.328 v -69.828 c -9.723,15.023 -25.633,22.98 -44.199,22.98 -33.145,0 -57.895,-23.867 -57.895,-59 0,-35.1363 24.75,-59.2223 57.895,-59.2223 19.23,0 35.359,8.3985 44.863,24.086 V 52.1172 H 661.07 V 216.082 Z M 602.508,64.9336 c -24.75,0 -43.313,18.1211 -43.313,45.3004 0,27.18 18.563,45.301 43.313,45.301 24.527,0 43.094,-18.121 43.094,-45.301 0,-27.1793 -18.567,-45.3004 -43.094,-45.3004 z m 97.605,128.8324 c 6.629,0 11.492,5.082 11.492,11.492 0,5.961 -5.082,10.824 -11.492,10.824 -6.41,0 -11.492,-5.082 -11.492,-11.047 0,-6.187 5.082,-11.269 11.492,-11.269 z M 692.16,52.1172 h 15.688 V 168.352 H 692.16 Z M 794.625,70.457 c -4.422,-3.9765 -10.828,-5.9648 -17.238,-5.9648 -13.035,0 -20.106,7.5117 -20.106,21.2109 V 155.09 h 35.356 v 13.262 h -35.356 v 25.414 H 741.59 V 168.352 H 720.816 V 155.09 H 741.59 V 84.8203 c 0,-21.4336 12.156,-33.8086 34.031,-33.8086 9.063,0 18.34,2.6524 24.527,8.1758 z m 64.68,-19.4453 c 34.031,0 59,24.75 59,59.2223 0,34.473 -24.969,59 -59,59 -34.032,0 -59.223,-24.527 -59.223,-59 0,-34.4723 25.191,-59.2223 59.223,-59.2223 z m 0,13.9219 c -24.75,0 -43.313,18.1211 -43.313,45.3004 0,27.18 18.563,45.301 43.313,45.301 24.75,0 43.09,-18.121 43.09,-45.301 0,-27.1793 -18.34,-45.3004 -43.09,-45.3004 z M 1086.62,168.352 v -22.985 c -9.5,15.469 -25.63,23.867 -44.86,23.867 -33.14,0 -57.893,-23.867 -57.893,-59 0,-35.359 24.753,-59.2223 57.893,-59.2223 18.56,0 34.48,7.9571 44.2,22.9844 V 9.25 h 15.69 V 168.352 Z M 1043.09,64.9336 c -24.75,0 -43.313,18.1211 -43.313,45.3004 0,26.957 18.563,45.301 43.313,45.301 24.53,0 43.09,-18.344 43.09,-45.301 0,-27.1793 -18.56,-45.3004 -43.09,-45.3004 z m 178.7,103.4184 v -60.989 c 0,-26.5192 -15.24,-42.2107 -39.55,-42.2107 -22.1,0 -34.92,12.5977 -34.92,37.3477 v 65.852 h -15.69 v -67.399 c 0,-33.3671 19.45,-49.9413 49.06,-49.9413 18.56,0 33.59,8.1758 41.77,22.3203 V 52.1172 h 15.02 V 168.352 Z m 148.43,-58.118 c 0,34.914 -23.64,59 -56.34,59 -32.71,0 -56.8,-24.527 -56.8,-59 0,-34.4723 24.75,-59.2223 60.99,-59.2223 18.34,0 34.47,6.6289 44.86,19.0039 l -8.84,10.1641 c -8.84,-10.1641 -21.43,-15.2461 -35.57,-15.2461 -25.42,0 -43.98,16.1289 -45.75,40.4374 H 1370 c 0,1.77 0.22,3.539 0.22,4.863 z m -56.34,45.52 c 22.75,0 39.33,-15.906 41.32,-38.668 h -82.43 c 1.99,22.762 18.56,38.668 41.11,38.668 z M 1495.67,51.0117 c 19.67,0 36.24,7.9571 45.52,22.9844 l -11.71,7.9531 c -7.96,-11.7148 -20.33,-17.0156 -33.81,-17.0156 -25.42,0 -43.97,17.8984 -43.97,45.3004 0,27.18 18.55,45.301 43.97,45.301 13.48,0 25.85,-5.523 33.81,-17.238 l 11.71,7.957 c -9.28,15.246 -25.85,22.98 -45.52,22.98 -34.7,0 -59.88,-24.304 -59.88,-59 0,-34.6949 25.18,-59.2223 59.88,-59.2223 z m 109.1,0 c 34.02,0 59,24.75 59,59.2223 0,34.473 -24.98,59 -59,59 -34.04,0 -59.23,-24.527 -59.23,-59 0,-34.4723 25.19,-59.2223 59.23,-59.2223 z m 0,13.9219 c -24.75,0 -43.32,18.1211 -43.32,45.3004 0,27.18 18.57,45.301 43.32,45.301 24.75,0 43.09,-18.121 43.09,-45.301 0,-27.1793 -18.34,-45.3004 -43.09,-45.3004 z m 223.34,104.3004 c -21,0 -37.57,-9.5 -45.97,-24.527 -7.07,16.352 -22.1,24.527 -41.32,24.527 -19.44,0 -34.47,-8.175 -42.65,-22.097 v 21.215 h -15.03 V 52.1172 h 15.7 v 60.9878 c 0,26.52 15.24,41.985 38.89,41.985 21.21,0 33.59,-12.594 33.59,-37.121 V 52.1172 H 1787 v 60.9878 c 0,26.52 15.03,41.985 38.89,41.985 21,0 33.38,-12.594 33.38,-37.121 V 52.1172 h 15.68 v 67.3988 c 0,33.367 -18.56,49.718 -46.84,49.718 z m 136.71,0 c -18.56,0 -34.47,-7.957 -44.19,-22.98 v 69.828 h -15.69 V 52.1172 h 15.02 v 22.9805 c 9.51,-15.6875 25.64,-24.086 44.86,-24.086 33.15,0 57.9,24.086 57.9,59.2223 0,35.133 -24.75,59 -57.9,59 z m -1.1,-104.3004 c -24.75,0 -43.31,18.1211 -43.31,45.3004 0,27.18 18.56,45.301 43.31,45.301 24.53,0 43.31,-18.121 43.31,-45.301 0,-27.1793 -18.78,-45.3004 -43.31,-45.3004 z m 86.33,128.8324 c 6.63,0 11.5,5.082 11.5,11.492 0,5.961 -5.09,10.824 -11.5,10.824 -6.41,0 -11.49,-5.082 -11.49,-11.047 0,-6.187 5.08,-11.269 11.49,-11.269 z M 2042.1,52.1172 h 15.69 V 168.352 h -15.69 z m 106,117.1168 c -20.11,0 -35.8,-8.175 -44.19,-22.316 v 21.434 h -15.03 V 52.1172 h 15.69 v 60.9878 c 0,26.52 15.69,41.985 40.66,41.985 22.09,0 34.91,-12.594 34.91,-37.121 V 52.1172 h 15.69 v 67.3988 c 0,33.367 -19.44,49.718 -47.73,49.718 z m 118.38,0 c -18.34,0 -35.58,-5.742 -47.29,-15.687 l 7.07,-11.715 c 9.5,8.398 23.65,13.703 38.67,13.703 21.66,0 32.93,-10.828 32.93,-30.715 v -7.074 h -36.91 c -33.36,0 -44.85,-15.023 -44.85,-32.9257 0,-20.1094 16.13,-33.8086 42.42,-33.8086 19.23,0 32.93,7.293 40,19.2227 V 52.1172 h 15.03 v 72.0388 c 0,30.055 -17.02,45.078 -47.07,45.078 z m -5.53,-105.8473 c -18.56,0 -29.39,8.3985 -29.39,21.875 0,11.9336 7.3,20.7733 29.83,20.7733 h 36.47 V 87.0313 c -6.19,-15.2461 -19.23,-23.6446 -36.91,-23.6446 z m 188.65,-12.375 c 19.67,0 36.24,7.9571 45.52,22.9844 l -11.71,7.9531 c -7.96,-11.7148 -20.33,-17.0156 -33.81,-17.0156 -25.41,0 -43.97,17.8984 -43.97,45.3004 0,27.18 18.56,45.301 43.97,45.301 13.48,0 25.85,-5.523 33.81,-17.238 l 11.71,7.957 c -9.28,15.246 -25.85,22.98 -45.52,22.98 -34.69,0 -59.89,-24.304 -59.89,-59 0,-34.6949 25.2,-59.2223 59.89,-59.2223 z m 109.1,0 c 34.03,0 59,24.75 59,59.2223 0,34.473 -24.97,59 -59,59 -34.03,0 -59.22,-24.527 -59.22,-59 0,-34.4723 25.19,-59.2223 59.22,-59.2223 z m 0,13.9219 c -24.75,0 -43.31,18.1211 -43.31,45.3004 0,27.18 18.56,45.301 43.31,45.301 24.75,0 43.09,-18.121 43.09,-45.301 0,-27.1793 -18.34,-45.3004 -43.09,-45.3004 z m 223.34,104.3004 c -20.99,0 -37.57,-9.5 -45.97,-24.527 -7.07,16.352 -22.09,24.527 -41.32,24.527 -19.45,0 -34.47,-8.175 -42.64,-22.097 v 21.215 h -15.03 V 52.1172 h 15.69 v 60.9878 c 0,26.52 15.24,41.985 38.89,41.985 21.22,0 33.59,-12.594 33.59,-37.121 V 52.1172 h 15.69 v 60.9878 c 0,26.52 15.02,41.985 38.89,41.985 20.99,0 33.37,-12.594 33.37,-37.121 V 52.1172 h 15.68 v 67.3988 c 0,33.367 -18.56,49.718 -46.84,49.718 z M 2964.27,51.0117 c 34.03,0 59.01,24.75 59.01,59.2223 0,34.473 -24.98,59 -59.01,59 -34.02,0 -59.22,-24.527 -59.22,-59 0,-34.4723 25.2,-59.2223 59.22,-59.2223 z m 0,13.9219 c -24.74,0 -43.31,18.1211 -43.31,45.3004 0,27.18 18.57,45.301 43.31,45.301 24.75,0 43.1,-18.121 43.1,-45.301 0,-27.1793 -18.35,-45.3004 -43.1,-45.3004 z m 167.44,-13.9219 c 30.27,0 47.95,13.0391 47.95,33.1485 0,44.6018 -75.35,20.9528 -75.35,52.3708 0,11.047 9.28,19.223 30.27,19.223 11.93,0 24.09,-2.871 34.25,-9.945 l 6.85,12.597 c -9.72,6.633 -26.07,10.828 -41.1,10.828 -29.61,0 -45.96,-14.144 -45.96,-33.148 0,-45.961 75.35,-22.133 75.35,-52.3672 0,-11.4922 -9.06,-19.0079 -31.16,-19.0079 -16.35,0 -32.04,5.7461 -41.32,13.0391 l -7.07,-12.375 c 9.5,-8.1758 28.06,-14.3633 47.29,-14.3633 z m 165.66,59.2223 c 0,34.914 -23.64,59 -56.35,59 -32.7,0 -56.79,-24.527 -56.79,-59 0,-34.4723 24.75,-59.2223 60.99,-59.2223 18.34,0 34.48,6.6289 44.86,19.0039 l -8.84,10.1641 c -8.84,-10.1641 -21.43,-15.2461 -35.58,-15.2461 -25.41,0 -43.97,16.1289 -45.74,40.4374 h 97.23 c 0,1.77 0.22,3.539 0.22,4.863 z m -56.35,45.52 c 22.77,0 39.34,-15.906 41.32,-38.668 h -82.42 c 1.99,22.762 18.56,38.668 41.1,38.668 z m 164.78,12.598 v -60.989 c 0,-26.5192 -15.24,-42.2107 -39.55,-42.2107 -22.1,0 -34.91,12.5977 -34.91,37.3477 v 65.852 h -15.69 v -67.399 c 0,-33.3671 19.44,-49.9413 49.05,-49.9413 18.57,0 33.59,8.1758 41.77,22.3203 V 52.1172 h 15.03 V 168.352 Z m 164.12,0.882 c -20.11,0 -35.79,-8.175 -44.19,-22.316 v 21.434 H 3510.7 V 52.1172 h 15.69 v 60.9878 c 0,26.52 15.69,41.985 40.66,41.985 22.1,0 34.91,-12.594 34.91,-37.121 V 52.1172 h 15.69 v 67.3988 c 0,33.367 -19.44,49.718 -47.73,49.718 z m 179.59,-59 c 0,34.914 -23.65,59 -56.35,59 -32.7,0 -56.79,-24.527 -56.79,-59 0,-34.4723 24.75,-59.2223 60.99,-59.2223 18.34,0 34.47,6.6289 44.86,19.0039 l -8.84,10.1641 c -8.84,-10.1641 -21.43,-15.2461 -35.58,-15.2461 -25.41,0 -43.98,16.1289 -45.74,40.4374 h 97.23 c 0,1.77 0.22,3.539 0.22,4.863 z m -56.35,45.52 c 22.76,0 39.34,-15.906 41.32,-38.668 h -82.42 c 1.99,22.762 18.56,38.668 41.1,38.668 z m 168.32,12.598 v -22.321 c -9.73,15.246 -26.52,23.203 -45.97,23.203 -33.14,0 -58.33,-22.761 -58.33,-56.129 0,-33.3667 25.19,-56.5698 58.33,-56.5698 19.01,0 35.58,7.7382 45.3,22.5429 V 64.2734 c 0,-28.7304 -13.47,-42.2109 -42.86,-42.2109 -17.91,0 -34.7,5.9688 -45.75,15.9141 l -7.95,-11.9336 c 12.15,-11.4922 32.92,-17.89847 54.14,-17.89847 38.45,0 58.11,18.11717 58.11,58.11327 V 168.352 Z m -44.42,-97.895 c -25.63,0 -43.97,17.4571 -43.97,42.648 0,25.192 18.34,42.43 43.97,42.43 25.64,0 44.2,-17.238 44.2,-42.43 0,-25.1909 -18.56,-42.648 -44.2,-42.648 z m 123.68,115.793 h 15.47 l 35.8,27.402 h -20.99 z m 14.59,-135.2383 c 34.03,0 59,24.75 59,59.2223 0,34.473 -24.97,59 -59,59 -34.03,0 -59.22,-24.527 -59.22,-59 0,-34.4723 25.19,-59.2223 59.22,-59.2223 z m 0,13.9219 c -24.75,0 -43.31,18.1211 -43.31,45.3004 0,27.18 18.56,45.301 43.31,45.301 24.74,0 43.09,-18.121 43.09,-45.301 0,-27.1793 -18.35,-45.3004 -43.09,-45.3004 z m 126.55,-13.9219 c 19.67,0 36.24,7.9571 45.52,22.9844 l -11.71,7.9531 c -7.96,-11.7148 -20.33,-17.0156 -33.81,-17.0156 -25.41,0 -43.97,17.8984 -43.97,45.3004 0,27.18 18.56,45.301 43.97,45.301 13.48,0 25.85,-5.523 33.81,-17.238 l 11.71,7.957 c -9.28,15.246 -25.85,22.98 -45.52,22.98 -34.69,0 -59.88,-24.304 -59.88,-59 0,-34.6949 25.19,-59.2223 59.88,-59.2223 z m 71.53,142.7543 c 6.63,0 11.49,5.082 11.49,11.492 0,5.961 -5.08,10.824 -11.49,10.824 -6.41,0 -11.49,-5.082 -11.49,-11.047 0,-6.187 5.08,-11.269 11.49,-11.269 z m -7.96,-141.6488 h 15.69 V 168.352 h -15.69 z m 94.29,-1.1055 c 34.03,0 59.01,24.75 59.01,59.2223 0,34.473 -24.98,59 -59.01,59 -34.03,0 -59.22,-24.527 -59.22,-59 0,-34.4723 25.19,-59.2223 59.22,-59.2223 z m 0,13.9219 c -24.74,0 -43.31,18.1211 -43.31,45.3004 0,27.18 18.57,45.301 43.31,45.301 24.75,0 43.1,-18.121 43.1,-45.301 0,-27.1793 -18.35,-45.3004 -43.1,-45.3004 z m 76.62,-13.9219 c 6.41,0 11.93,5.3047 11.93,12.1563 0,6.8476 -5.52,11.9297 -11.93,11.9297 -6.41,0 -11.72,-5.0821 -11.72,-11.9297 0,-6.8516 5.31,-12.1563 11.72,-12.1563" /></g></g></svg>